<svg width="56" height="56" viewBox="0 0 56 56" fill="none" xmlns="http://www.w3.org/2000/svg">
<path d="M55.9243 56L0 55.9621L0.0378634 0L56 0.037889L55.9243 56Z" fill="#F22C2C"/>
<path d="M9.50391 36.1082V11.5561C9.50391 9.92684 9.88254 8.75228 10.6777 8.10816C11.4349 7.46405 12.7602 7.12305 14.6533 7.12305C16.5086 7.12305 17.8339 7.42616 18.5911 8.10816C19.3484 8.75228 19.727 9.88895 19.727 11.5561V19.4749H17.0387V11.253C17.0387 9.24483 16.2436 8.22183 14.5776 8.22183C12.9116 8.22183 12.1165 9.24483 12.1165 11.253V36.5628C12.1165 38.5331 12.9495 39.5182 14.5776 39.5182C16.2436 39.5182 17.0387 38.5331 17.0387 36.5628V27.4316H19.6513V36.146C19.6513 37.8511 19.2727 38.9877 18.5533 39.6318C17.8339 40.276 16.5086 40.617 14.6155 40.617C12.7223 40.617 11.4349 40.276 10.6398 39.6318C9.88254 38.9119 9.50391 37.7753 9.50391 36.1082Z" fill="white"/>
<path d="M26.845 40.2004H24.2324V7.54004H26.845V22.923H31.8051V7.54004H34.4177V40.2004H31.8051V24.4007H26.845V40.2004Z" fill="white"/>
<path d="M47.1418 40.2004H39.5312V7.54004H46.8768V8.97982H42.1438V22.923H46.536V24.3628H42.1438V38.6848H47.1418V40.2004Z" fill="white"/>
<path d="M14.0091 43.9135L14.047 44.2924C14.047 44.406 14.0091 44.4818 13.8955 44.4818C13.7441 44.1787 13.5547 43.9135 13.3276 43.6862C13.0625 43.4209 12.646 43.3073 12.1159 43.3073C11.7373 43.3073 11.3587 43.383 11.0558 43.4967C10.715 43.6104 10.4499 43.8377 10.2606 44.1029C10.0335 44.3682 9.882 44.7092 9.76841 45.0502C9.65482 45.429 9.61695 45.77 9.61695 46.1111C9.61695 46.4899 9.65482 46.8309 9.76841 47.1341C9.882 47.4372 10.0335 47.7403 10.2985 48.0055C10.5257 48.2707 10.8286 48.4981 11.1694 48.6117C11.5101 48.7254 11.8888 48.8012 12.3053 48.8012C12.5324 48.8012 12.7218 48.7633 12.9111 48.7633C13.1004 48.7254 13.2518 48.6496 13.4033 48.536C13.479 48.4602 13.5169 48.3844 13.5547 48.2328C13.5926 48.0813 13.5926 47.9297 13.5926 47.7403V46.9825C13.5926 46.7173 13.5547 46.5657 13.479 46.4899C13.4033 46.4142 13.2518 46.3763 12.9489 46.3763H12.7975C12.7596 46.3763 12.7218 46.3005 12.7218 46.2626C12.7218 46.1868 12.7975 46.1489 12.9489 46.1489C13.0625 46.1489 13.2518 46.1489 13.5169 46.1489C13.7819 46.1489 13.9334 46.1489 13.9712 46.1489C14.0848 46.1489 14.2742 46.1489 14.5013 46.1489C14.7285 46.1489 14.88 46.1489 14.9178 46.1489C15.0314 46.1489 15.0693 46.1868 15.0693 46.2626C15.0693 46.3384 15.0314 46.3763 14.88 46.3763L14.6907 46.4142C14.6528 46.4142 14.6149 46.4142 14.5392 46.4142C14.4635 46.4142 14.4256 46.4521 14.3877 46.4899C14.3499 46.5278 14.3499 46.5657 14.312 46.6415C14.312 46.7173 14.2742 46.7931 14.2742 46.8688V46.9825V48.0434V48.2328C14.2742 48.3086 14.2742 48.3844 14.2363 48.4223C14.1984 48.4602 14.1606 48.4981 14.1227 48.536C13.8577 48.7254 13.5547 48.8391 13.1761 48.9148C12.8353 48.9906 12.4946 49.0285 12.1159 49.0285C11.6616 49.0285 11.2451 48.9906 10.8664 48.877C10.4878 48.7633 10.147 48.5738 9.80627 48.3465C9.4655 48.0434 9.20045 47.7024 9.01114 47.3614C8.82182 46.9825 8.74609 46.6036 8.74609 46.1489C8.74609 45.2396 9.12473 44.4818 9.84413 43.8756C10.5257 43.3073 11.3587 43.0042 12.2674 43.0042C12.5324 43.0042 12.7975 43.042 13.0625 43.0799C13.3276 43.1178 13.5547 43.1936 13.7819 43.2694C13.9334 43.3073 14.0091 43.383 14.0091 43.4967C14.0091 43.6862 14.0091 43.7998 14.0091 43.9135Z" fill="#040D0B"/>
<path d="M19.0825 44.1029V45.7701C19.0825 45.8458 19.1203 45.8837 19.1582 45.9216C19.196 45.9595 19.2718 45.9595 19.3475 45.9595H19.5747C19.8397 45.9595 20.0669 45.9216 20.2184 45.9216C20.4077 45.8837 20.5591 45.8079 20.7106 45.6943C20.862 45.5806 20.9756 45.4291 21.0513 45.2775C21.1271 45.1259 21.1649 44.9365 21.1649 44.7471C21.1649 44.3303 21.0513 43.9893 20.8242 43.7619C20.597 43.5346 20.2562 43.4209 19.8397 43.4209C19.4989 43.4209 19.2718 43.4588 19.2339 43.5346C19.0825 43.5725 19.0825 43.7619 19.0825 44.1029ZM18.3252 48.0055V44.1787V43.9893C18.3252 43.7619 18.2873 43.6104 18.2495 43.5346C18.1737 43.4588 17.9844 43.4209 17.7194 43.4209C17.5679 43.4209 17.4922 43.383 17.4922 43.3073C17.4922 43.2315 17.5679 43.1936 17.6436 43.1936C17.7572 43.1936 17.9087 43.1936 18.1359 43.1936C18.4009 43.1936 18.5145 43.2315 18.5524 43.2315C18.7417 43.2315 19.0446 43.2315 19.4611 43.1936C19.8776 43.1936 20.1048 43.1936 20.1426 43.1936C20.6349 43.1936 21.0135 43.3073 21.3543 43.5346C21.7329 43.7998 21.9222 44.1408 21.9222 44.6334C21.9222 45.0502 21.7708 45.3533 21.4678 45.6185C21.2028 45.8458 20.862 45.9974 20.4077 46.0732C20.5591 46.0732 20.6727 46.1868 20.7484 46.3005C20.7863 46.3763 20.862 46.4899 20.9756 46.6794L21.7329 48.1192C21.8465 48.3844 21.9222 48.536 21.9979 48.5738C22.1115 48.7254 22.263 48.8012 22.4523 48.8012C22.528 48.8012 22.6037 48.8012 22.6416 48.8391C22.6795 48.877 22.7173 48.9148 22.7173 48.9527C22.7173 49.0285 22.6416 49.0664 22.528 49.0664H21.5814C21.5057 49.0664 21.43 49.0285 21.3921 48.9527C21.3543 48.8391 21.3164 48.7633 21.2785 48.7254L20.3698 46.9067C20.2184 46.6036 20.1048 46.4521 20.0669 46.3763C19.9533 46.2247 19.6883 46.1489 19.3096 46.1489C19.196 46.1489 19.1203 46.1868 19.1203 46.1868C19.0825 46.2247 19.0825 46.2626 19.0825 46.3763C19.0825 46.49 19.0825 46.5278 19.0825 46.5657V48.0055C19.0825 48.3465 19.1203 48.536 19.1582 48.6117C19.196 48.7254 19.3854 48.7633 19.6883 48.7633C19.764 48.7633 19.8397 48.7633 19.8776 48.7633C19.9154 48.7633 19.9533 48.8012 19.9533 48.877C19.9533 48.9527 19.8776 48.9906 19.8019 48.9906C19.6504 48.9906 19.4611 48.9906 19.2718 48.9906C19.0825 48.9906 18.8931 48.9527 18.7417 48.9527C18.6281 48.9527 18.4388 48.9527 18.1359 48.9906C17.8708 48.9906 17.7194 48.9906 17.6815 48.9906C17.5679 48.9906 17.5301 48.9527 17.5301 48.877C17.5301 48.8012 17.6058 48.7633 17.7572 48.7633C18.0601 48.7633 18.2495 48.7254 18.2873 48.6117C18.3252 48.536 18.3252 48.3465 18.3252 48.0055Z" fill="#040D0B"/>
<path d="M30.6709 46.035C30.6709 45.6561 30.6331 45.2772 30.5574 44.9741C30.4816 44.671 30.3302 44.3679 30.0651 44.1026C29.838 43.8374 29.5729 43.6101 29.27 43.4585C28.9671 43.307 28.6642 43.2312 28.2856 43.2312C27.9069 43.2312 27.5661 43.307 27.2632 43.4585C26.9225 43.6101 26.6574 43.8374 26.4302 44.1026C26.2409 44.3679 26.0895 44.6331 25.9759 44.9741C25.9002 45.2772 25.8244 45.6561 25.8244 45.9971C25.8244 46.376 25.8623 46.717 25.9759 47.058C26.0516 47.399 26.2409 47.7021 26.4302 47.9673C26.8846 48.5357 27.4904 48.8009 28.2477 48.8009C28.5885 48.8009 28.9292 48.7251 29.2321 48.5735C29.5729 48.422 29.8001 48.1947 30.0273 47.9294C30.2545 47.6642 30.4059 47.3611 30.4816 47.058C30.6331 46.7549 30.6709 46.4139 30.6709 46.035ZM25.0293 46.035C25.0293 45.2014 25.3701 44.4815 26.0137 43.9132C26.6574 43.3449 27.4147 43.0417 28.2856 43.0417C29.1943 43.0417 29.9515 43.307 30.5952 43.8753C31.2389 44.4436 31.5418 45.1635 31.5418 46.035C31.5418 46.9443 31.2389 47.6642 30.5952 48.2325C29.9894 48.8009 29.2321 49.0661 28.3234 49.0661C27.4526 49.0661 26.7332 48.763 26.0516 48.1947C25.3701 47.5884 25.0293 46.8685 25.0293 46.035Z" fill="#040D0B"/>
<path d="M39.3416 47.134V44.5954C39.3416 44.3681 39.3416 44.1786 39.3416 44.0271C39.3416 43.8755 39.3037 43.7618 39.228 43.6861C39.1901 43.6103 39.1144 43.5345 39.0008 43.4966C38.9251 43.4587 38.8115 43.4587 38.66 43.4587C38.5843 43.4587 38.5086 43.4587 38.4707 43.4587C38.4329 43.4587 38.395 43.4208 38.395 43.383C38.395 43.3072 38.4707 43.2693 38.5843 43.2693C38.66 43.2693 38.8115 43.2693 39.0008 43.2693C39.1901 43.2693 39.3416 43.3072 39.4173 43.3072C39.493 43.3072 39.6445 43.3072 39.8338 43.2693C40.0231 43.2693 40.1367 43.2693 40.1367 43.2693C40.2882 43.2693 40.326 43.3072 40.326 43.383C40.326 43.4587 40.2882 43.4587 40.2503 43.4966C40.1746 43.4966 40.0989 43.4966 40.061 43.4966C39.8717 43.4966 39.7202 43.5345 39.6445 43.6482C39.6066 43.7618 39.5688 43.8755 39.5688 44.1028V44.2923V47.2097C39.5688 47.6644 39.5309 48.0054 39.4552 48.157C39.3794 48.3464 39.228 48.5359 39.0387 48.6874C38.8115 48.8769 38.5465 48.9905 38.2435 49.0663C37.9406 49.1421 37.5999 49.18 37.2591 49.18C36.9183 49.18 36.6154 49.1421 36.3125 49.1042C36.0096 49.0284 35.7446 48.9148 35.5552 48.7632C35.2902 48.5738 35.1387 48.3464 35.063 48.0812C35.0252 47.8918 34.9873 47.6265 34.9873 47.2097V44.2923V44.1028C34.9873 43.8755 34.9494 43.724 34.9116 43.6482C34.8358 43.5724 34.6465 43.5345 34.3815 43.5345C34.23 43.5345 34.1543 43.4966 34.1543 43.4208C34.1543 43.3451 34.1922 43.3072 34.3058 43.3072C34.4193 43.3072 34.6465 43.3072 34.9116 43.3072C35.1766 43.3072 35.3281 43.3451 35.3281 43.3451C35.4417 43.3451 35.6688 43.3451 35.9339 43.3072C36.2368 43.3072 36.3504 43.3072 36.3882 43.3072C36.5018 43.3072 36.5397 43.3451 36.5397 43.4208C36.5397 43.4587 36.5018 43.4966 36.464 43.4966C36.4261 43.4966 36.3504 43.4966 36.3125 43.4966C36.0475 43.4966 35.896 43.5345 35.8203 43.6103C35.7446 43.6861 35.7446 43.8376 35.7446 44.065V44.2544V46.8687C35.7446 47.2855 35.7446 47.5886 35.7446 47.7781C35.7446 47.9675 35.8203 48.157 35.9339 48.3085C36.0475 48.5359 36.2746 48.6874 36.5776 48.8011C36.8426 48.8769 37.1076 48.9148 37.4484 48.9148C37.7513 48.9148 38.0164 48.8769 38.2814 48.8011C38.5465 48.7253 38.7736 48.6116 38.9251 48.4222C39.1144 48.2328 39.228 48.0433 39.228 47.816C39.3416 47.6644 39.3416 47.4371 39.3416 47.134Z" fill="#040D0B"/>
<path d="M44.2618 45.391V45.6183C44.2618 45.732 44.2618 45.8456 44.2997 45.9214C44.3376 45.9972 44.3754 46.073 44.4511 46.1109C44.5269 46.1488 44.6405 46.1866 44.7919 46.2245C44.9434 46.2624 45.0948 46.2624 45.2463 46.2624C45.6249 46.2624 45.9278 46.1109 46.155 45.8078C46.3822 45.5046 46.5336 45.1636 46.5336 44.7847C46.5336 44.5574 46.4958 44.368 46.42 44.1406C46.3443 43.9512 46.2307 43.7617 46.0414 43.6481C45.89 43.4965 45.7385 43.4207 45.5492 43.3829C45.3599 43.345 45.1706 43.3071 44.9434 43.3071C44.6405 43.3071 44.4511 43.345 44.3754 43.4586C44.2997 43.5723 44.2618 43.7617 44.2618 44.1027V45.391ZM44.4511 46.3382C44.3754 46.3382 44.3376 46.3761 44.3376 46.414C44.3376 46.4519 44.2997 46.5655 44.2997 46.6792V47.9674C44.2997 48.3084 44.3376 48.4979 44.3376 48.5736C44.4133 48.6873 44.6026 48.7252 44.9055 48.7252C44.9812 48.7252 45.057 48.7252 45.0948 48.7252C45.1327 48.7252 45.1706 48.7631 45.1706 48.8389C45.1706 48.9146 45.0948 48.9525 45.0191 48.9525C44.8676 48.9525 44.6783 48.9525 44.489 48.9525C44.2997 48.9525 44.1104 48.9147 43.9968 48.9147C43.8832 48.9147 43.6939 48.9146 43.391 48.9525C43.1259 48.9525 42.9745 48.9525 42.9366 48.9525C42.823 48.9525 42.7852 48.9146 42.7852 48.8389C42.7852 48.801 42.823 48.7631 42.8609 48.7252C42.8987 48.7252 42.9745 48.7252 43.0502 48.7252C43.391 48.7252 43.5803 48.6115 43.6182 48.46C43.6182 48.4221 43.6182 48.2326 43.6182 47.9674V44.1406V43.9512C43.6182 43.7239 43.5803 43.5723 43.5424 43.4965C43.4667 43.4207 43.2774 43.3829 43.0123 43.3829C42.8609 43.3829 42.7852 43.345 42.7852 43.2692C42.7852 43.1934 42.823 43.1555 42.9366 43.1555C43.0502 43.1555 43.2017 43.1555 43.4288 43.1555C43.656 43.1555 43.8075 43.1934 43.9211 43.1934C44.1482 43.1934 44.4133 43.1934 44.6783 43.1934C44.9812 43.1934 45.2084 43.1555 45.3977 43.1555C45.6628 43.1555 45.89 43.1934 46.0793 43.2313C46.2686 43.2692 46.4579 43.345 46.6472 43.4965C46.8365 43.6481 47.0259 43.7996 47.1395 44.0649C47.253 44.2922 47.3288 44.5195 47.3288 44.7847C47.3288 45.2394 47.1773 45.6562 46.8744 46.0351C46.5715 46.3761 46.1929 46.5655 45.7006 46.5655C45.6249 46.5655 45.5492 46.5655 45.4735 46.5655C45.3977 46.5655 45.2463 46.5276 45.057 46.4898C44.7919 46.414 44.6026 46.3761 44.4511 46.3382Z" fill="#040D0B"/>
</svg>
